<svg width="2841" height="2807" viewBox="0 0 2841 2807" fill="none" xmlns="http://www.w3.org/2000/svg">
<path d="M2794.15 1422.4C2793.65 1422.1 2793.4 1421.95 2793.4 1421.95C2776.75 1411.6 2754.35 1410.45 2735.95 1424.5C2725.05 1432.85 2715.1 1441.75 2707.5 1451C2685.75 1477.45 2624.9 1511.65 2546.9 1524.6C2546.85 1524.65 2546.85 1524.65 2546.85 1524.65C2511.65 1530.55 2472.95 1532.1 2432.75 1526.65H2432.7C2418.9 1524.8 2404.9 1522.1 2390.8 1518.5C2390.85 1518.4 2390.9 1518.35 2390.95 1518.25C2391.25 1517.85 2391.55 1517.4 2391.85 1517C2559.05 1280.2 2586.05 1054.15 2521.85 882.1C2486.75 787.95 2424.35 710 2342.65 655.25C2317.9 638.6 2291.35 624.15 2263.25 612C2260.4 610.75 2257.5 609.85 2254.6 609.05H2254.55C2243.1 606 2231.6 606.5 2221.25 609.85C2195.75 618.049 2176.8 642.999 2180.55 673.15C2184.3 703.25 2196.1 735.001 2225 757.25C2342.9 847.95 2327.85 1006.8 2253.3 1129.6C2240.2 1151.2 2225.3 1171.65 2208.95 1190.4C2208.9 1190.5 2208.85 1190.55 2208.8 1190.55C2180.95 1222.5 2149 1249.6 2114.8 1269.05C2098.25 1278.5 2081.2 1286.15 2063.85 1291.65C1995.3 1313.5 1922.25 1302.55 1858.35 1239.35C2195 796 1938.85 283.75 1560 101C1415.6 31.3501 1248.05 7.10013 1090.2 34.4001C1071.1 37.7001 1052.1 41.7501 1033.35 46.6001C982.3 59.6501 932.7 78.5001 885.75 103.2C885.65 103.25 885.6 103.3 885.55 103.3H885.5L885.45 103.35C671.3 215.95 512.35 451.15 520 829.35C417.3 956.7 352.9 1093.35 587.9 1302.65C591.05 1305.45 594.3 1308.3 597.6 1311.15C620 1330.65 634.8 1357.35 639.05 1386.5C639.6 1389.95 640 1393.45 640.2 1397C651.05 1577.8 552.4 1733.1 427.8 1697.15C399.85 1689.1 375.6 1671.75 356.7 1649.6C277.15 1556.4 228.8 1390.45 139.75 1336.3C122.95 1326.1 104.7 1319.85 84.5 1318.85C76.8 1318.45 69.35 1319.6 62.5 1322C39.5 1330.1 22.8 1352.25 23.45 1378.05C24.2 1406.55 37.4 1447.2 81.25 1502.25C81.25 1502.25 125.9 1560.5 133.95 1737C136.35 1790.25 149.35 1842.25 172.1 1889.45C191.9 1930.85 219.25 1968.65 253.55 2000.4C343.35 2083.55 468.4 2122.35 605 2061C604.65 2084.4 605.85 2107.15 608.55 2129.2V2129.5C630.8 2313.5 753.65 2450.3 911 2538.1C1138.4 2664.95 1437.85 2689.45 1609.75 2606.1C1653.95 2584.65 1662.15 2528.75 1633.8 2494.3C1628.1 2487.35 1620.9 2481.25 1612.2 2476.5C1576.75 2457.15 1526.25 2436.1 1454.45 2416.55C1425 2408.55 1392 2400.75 1355 2393.5C1145.4 2346.6 1014.1 2224.6 967.55 2021.15C967.5 2021.05 967.5 2021 967.5 2021C1086.45 2193 1276.1 2289.55 1515 2333.5C1538 2336.45 1560.35 2341 1582.15 2347.1C1645.55 2364.75 1703.95 2395.35 1758 2437.4C1851.25 2509.85 1931.45 2616.2 2001.65 2748.45C2029.8 2801.5 2107.75 2794.25 2126.45 2737.2C2136.9 2705.4 2140.9 2668.75 2139.1 2629.05C2133.8 2513 2078.95 2371 1990.2 2248.85C1979 2233.35 1967.2 2218.25 1954.95 2203.5C1965.1 2213.9 1975.9 2223.75 1987.35 2233.1C1988.45 2234 1989.6 2234.95 1990.75 2235.85C1996.1 2240.15 2001.65 2244.35 2007.3 2248.45L2007.4 2248.55C2147 2349.7 2361.6 2381.45 2521.25 2327.5L2521.3 2327.45C2551.55 2317.25 2579.8 2303.95 2605.2 2287.45C2657.2 2253.7 2646.75 2175 2588.05 2155.1C2563.55 2146.8 2535.75 2139.55 2505.95 2135.6C2418 2123.95 2334.15 2091.25 2263.5 2037.55C2220.6 2004.9 2178.05 1968.4 2142.55 1929.9C2136.2 1923.1 2130.1 1916.2 2124.3 1909.3L2124.25 1909.2C2104.25 1885.5 2087.3 1861.15 2074.85 1836.65C2072.2 1831.45 2069.75 1826.2 2067.5 1821C2432.75 1927.5 2755.75 1767.8 2816.45 1475C2821.15 1452.45 2810.55 1432.95 2794.15 1422.4ZM1657.5 1993.5C1547.9 1960.1 1457.1 1897.5 1393.75 1792.25C1555 1806.25 1688.05 1912.1 1806.3 2066.45C1760 2034.7 1710.1 2009.55 1657.5 1993.5Z" fill="#00A4FF"/>
<g opacity="0.6">
<path d="M2113.35 1281L2114.8 1269.05C2149 1249.6 2180.95 1222.5 2208.8 1190.55C2208.85 1190.55 2208.9 1190.5 2208.95 1190.4C2225.3 1171.65 2240.2 1151.2 2253.3 1129.6C2327.85 1006.8 2342.9 847.95 2225 757.25C2196.1 735 2184.3 703.25 2180.55 673.15C2176.8 643 2195.75 618.05 2221.25 609.85C2239.8 609.5 2254.6 609.05 2254.6 609.05C2254.6 609.05 2186.65 651.85 2249.15 720.15C2311.65 788.5 2514.7 994.35 2113.35 1281Z" fill="white"/>
</g>
<g opacity="0.6">
<path d="M405.3 1739.4C405.3 1739.4 305 1697.25 235 1526C167.2 1360.1 109.95 1332.65 106.4 1331.05L139.75 1336.3C228.8 1390.45 277.15 1556.4 356.7 1649.6C375.6 1671.75 399.85 1689.1 427.8 1697.15C552.4 1733.1 651.05 1577.8 640.2 1397C640 1393.45 639.6 1389.95 639.05 1386.5H639.1C720.15 1638.05 576.4 1799.25 405.3 1739.4Z" fill="white"/>
</g>
<g opacity="0.6">
<path d="M572.1 846C435.75 1009.8 481.25 1158.7 587.9 1302.65C352.9 1093.35 417.3 956.7 520 829.35C512.35 451.151 671.3 215.95 885.45 103.35L885.5 103.3H885.55C885.6 103.3 885.65 103.25 885.75 103.2C932.7 78.5001 982.3 59.6501 1033.35 46.6001C764.2 138.25 608.55 341 572.1 846Z" fill="white"/>
</g>
<g opacity="0.6">
<path d="M1156.97 2629.08C633.1 2462.98 525.996 1948.87 817.5 1552.25L769.712 1574.49L744.983 1603.08C449.874 1995.68 608.55 2530.59 1156.97 2629.08Z" fill="white"/>
</g>
<path d="M1633.8 2494.3C1614 2560.4 1396.65 2516 1396.65 2516C933.35 2492.65 718.2 2016.85 905 1716C906.6 1830.25 925.75 1933 967.5 2021C967.5 2021 967.5 2021.05 967.55 2021.15C1014.1 2224.6 1145.4 2346.6 1355 2393.5C1482.25 2418.55 1562.2 2449.2 1612.2 2476.5C1620.9 2481.25 1628.1 2487.35 1633.8 2494.3Z" fill="white"/>
<path d="M839.65 1169.95C797.5 1316 666.25 1229.75 632.5 1048.5L633.1 1047.05C650.1 1051.7 668.15 1063.5 683.75 1083.5C749.1 1143.3 806.75 1177.55 839.65 1169.95Z" fill="white"/>
<path d="M1141.95 1039.6C1152.4 1029 1162.4 1015.9 1171.4 1000.4C1177.75 989.5 1184.15 978.6 1191.05 967.95C1267.25 850.65 1356.4 733.55 1441.95 684.1C1516.9 911.5 1300.15 1096 1141.95 1039.6Z" fill="white"/>
<path d="M2816.45 1475C2755.75 1767.8 2432.75 1927.5 2067.5 1821C2069.75 1826.2 2072.2 1831.45 2074.85 1836.65L1918.15 1606.6C2295 1802.25 2715.25 1667.65 2793.4 1421.95C2793.4 1421.95 2793.65 1422.1 2794.15 1422.4C2810.55 1432.95 2821.15 1452.45 2816.45 1475Z" fill="white"/>
<path d="M2391.85 1517L2218.1 1476C2425 1341 2545 854.75 2342.6 655.25H2342.65C2573.65 810.1 2650.5 1150.65 2391.85 1517Z" fill="white"/>
<path d="M608.55 2129.2C605.85 2107.15 604.65 2084.4 605 2061C468.4 2122.35 343.35 2083.55 253.55 2000.4C180.15 1932.4 138.5 1836.9 133.95 1737C125.9 1560.5 81.25 1502.25 81.25 1502.25C37.4 1447.2 24.2 1406.55 23.45 1378.05C22.8 1352.25 39.5 1330.1 62.5 1322C62.55 1322 62.5999 1322 62.5999 1322C62.5999 1322 23.35 1355.15 81.65 1410.15C140 1465.15 185 1527.65 205 1631C225 1734.35 285.2 2001.95 604.8 1947.65L608.55 2129.2Z" fill="white"/>
<path d="M1710 1766C1517.5 1626 1315 1644.35 1315 1644.35C1316.05 1649.45 1317.25 1654.4 1318.55 1659.3L1316.65 1656C1316.65 1656 1218.35 1759.35 1340 1911C1612.5 2208.5 1977.5 2158.5 2139.05 2629.1L2139.1 2629.05C2133.15 2498.3 2064.3 2334.65 1954.95 2203.5C2087.65 2339.5 2339.9 2388.8 2521.25 2327.5L2521.3 2327.45C2122.6 2358.9 1850.8 1868.4 1710 1766ZM1657.5 1993.5C1547.9 1960.1 1457.1 1897.5 1393.75 1792.25C1555 1806.25 1688.05 1912.1 1806.3 2066.45C1760 2034.7 1710.1 2009.55 1657.5 1993.5Z" fill="white"/>
<path d="M2061.01 2806.91C2027.6 2806.91 1997.74 2789.07 1981.79 2759.02C1850.39 2511.48 1696.76 2379.59 1512.13 2355.81C1511.73 2355.76 1511.33 2355.7 1510.93 2355.63C1302 2317.21 1142.69 2242.34 1027.66 2127.94C1088.36 2255.14 1197.87 2335.23 1359.63 2371.48C1470.8 2393.37 1559.39 2422.05 1622.97 2456.74C1654.56 2473.98 1673.65 2507.13 1672.79 2543.25C1671.93 2579 1651.53 2610.84 1619.55 2626.35C1548.35 2660.87 1458.79 2677.43 1362.6 2677.43C1194.49 2677.44 1006.05 2626.91 859.316 2533.45C688.659 2424.75 591.543 2269.66 583.051 2093.94C461.701 2136.16 337.624 2108.91 238.259 2016.9C161.445 1945.77 116.416 1846.72 111.472 1738C104.172 1577.49 65.61 1519.17 63.332 1515.87C23.02 1465.13 2.03603 1418.95 0.971025 1378.62C0.388025 1356.55 9.208 1334.94 25.175 1319.35C41.269 1303.63 63.29 1295.25 85.602 1296.37C181.439 1301.17 236.247 1402.24 289.247 1499.98C315.517 1548.42 342.682 1598.52 373.83 1635C390.991 1655.1 411.816 1669.12 434.047 1675.54C468.544 1685.49 501.139 1678.42 530.959 1654.56C589.274 1607.88 624.143 1504.91 617.724 1398.35C616.113 1371.61 603.393 1346.03 582.824 1328.16C464.98 1225.75 406.767 1131.1 404.855 1038.82C403.095 953.765 449.774 881.509 497.365 821.607C495.036 655.396 524.411 508.594 584.714 385.162C640.642 270.684 721.457 178.956 824.922 112.525C931.34 44.2001 1058.65 5.76205 1193.09 1.36805C1323.05 -2.85595 1453.33 24.5661 1569.77 80.7381C1789.96 186.944 1961.43 397.154 2017.25 629.332C2052.9 777.603 2058.64 1001.89 1888.51 1236.43C1938.09 1277.97 1995.96 1289.66 2056.99 1270.21C2162.67 1236.52 2262.59 1112.36 2284.47 987.545C2300.03 898.819 2274.04 823.365 2211.28 775.084C2181.4 752.101 2163.55 718.736 2158.21 675.914C2154.57 646.69 2166.47 618.692 2190.04 601.012C2213.95 583.077 2244.65 579.464 2272.17 591.359C2414.03 652.658 2514.93 767.648 2556.28 915.158C2606.83 1095.49 2561.44 1303.27 2428.49 1503.34C2556.67 1523.49 2665.91 1466.11 2690.13 1436.7C2698.26 1426.83 2709.08 1416.71 2722.29 1406.63C2746.74 1387.98 2779.47 1386.58 2805.69 1403.08C2831.83 1419.54 2844.71 1449.56 2838.48 1479.58C2811.33 1610.55 2731.61 1721.61 2614.02 1792.32C2476.25 1875.16 2295.77 1897.55 2112.21 1855.83C2146.04 1906.8 2202.1 1962.59 2277.11 2019.62C2342.72 2069.49 2422.87 2101.89 2508.9 2113.29C2537.21 2117.04 2566.27 2123.94 2595.29 2133.79C2630.88 2145.87 2655.89 2176.51 2660.54 2213.74C2665.14 2250.61 2648.64 2286.08 2617.47 2306.31C2544.79 2353.49 2450.43 2375.9 2352.76 2375.91C2249.43 2375.92 2142.4 2350.83 2053.26 2303.44C2062.39 2318.77 2071.14 2334.48 2079.46 2350.5C2155.26 2496.59 2180.83 2643.78 2147.84 2744.24C2136.26 2779.52 2106.09 2803.4 2069.11 2806.56C2066.39 2806.8 2063.69 2806.91 2061.01 2806.91ZM1518.49 2311.26C1718.38 2337.25 1882.94 2476.82 2021.54 2737.92C2030.3 2754.42 2046.64 2763.32 2065.28 2761.72C2079.93 2760.47 2098.08 2751.53 2105.09 2730.19C2133.94 2642.32 2108.82 2504.77 2039.52 2371.23C2010.94 2316.17 1977.19 2265.35 1939.66 2220.05C1939.38 2219.77 1939.11 2219.5 1938.83 2219.21C1937.77 2218.12 1936.84 2216.95 1936.04 2215.72C1853.75 2117.82 1753.79 2046.42 1650.93 2015.02C1527.82 1977.49 1437.38 1908.41 1374.47 1803.85C1370.11 1796.6 1370.18 1787.52 1374.66 1780.34C1379.14 1773.16 1387.27 1769.14 1395.7 1769.83C1547.71 1783.05 1687.27 1874.83 1822.3 2050.4C1876.13 2087.78 1926.9 2134.71 1972.39 2189.16C2042.74 2260.47 2152.67 2310.29 2274.34 2325.95C2396.43 2341.66 2512.57 2320.75 2592.97 2268.56C2609.8 2257.64 2618.37 2239.23 2615.88 2219.31C2613.35 2199.04 2600.24 2182.99 2580.82 2176.4C2554.58 2167.49 2528.39 2161.26 2502.99 2157.89C2409.22 2145.47 2321.7 2110.04 2249.88 2055.44C2145.11 1975.79 2076.79 1899.89 2046.81 1829.85C2043.39 1821.85 2044.89 1812.59 2050.66 1806.08C2056.43 1799.56 2065.43 1796.96 2073.8 1799.4C2262.58 1854.45 2451.03 1837.81 2590.83 1753.75C2697.55 1689.59 2769.85 1588.97 2794.42 1470.44C2798.04 1452.97 2785.61 1443.62 2781.72 1441.17C2777.79 1438.69 2763.88 1431.49 2749.59 1442.4C2739.12 1450.39 2730.8 1458.09 2724.87 1465.3C2687.6 1510.56 2545.29 1581.46 2385.2 1540.29C2378.03 1538.44 2372.22 1533.19 2369.68 1526.24C2367.13 1519.29 2368.16 1511.53 2372.44 1505.49C2512.25 1308.14 2562.15 1102.8 2512.95 927.297C2475.33 793.112 2383.48 688.474 2254.32 632.663C2241.81 627.253 2227.88 628.884 2217.04 637.009C2206.39 644.997 2201.22 657.151 2202.87 670.344C2206.66 700.793 2218.72 724.031 2238.72 739.416C2315.4 798.41 2347.39 889.289 2328.8 995.314C2303.86 1137.51 2192.89 1274.11 2070.66 1313.08C1987.86 1339.48 1906.83 1318.97 1842.51 1255.33C1834.48 1247.39 1833.58 1234.72 1840.41 1225.73C2012.38 999.27 2007.71 782.131 1973.5 639.851C1920.75 420.466 1758.56 221.755 1550.23 121.262C1322.8 11.5701 1047.64 22.9951 849.234 150.388C645.245 281.365 536.309 522.322 542.496 828.879C542.603 834.172 540.838 839.333 537.516 843.459C441.141 962.961 374.342 1087.36 612.343 1294.19C641.977 1319.94 660.312 1356.92 662.643 1395.64C670.014 1518.01 629.364 1633.43 559.081 1689.69C517.772 1722.75 470.221 1732.8 421.576 1718.77C390.851 1709.91 362.506 1691.04 339.608 1664.22C305.384 1624.13 277.071 1571.92 249.691 1521.43C200.448 1430.62 153.937 1344.85 83.353 1341.31C73.556 1340.83 63.775 1344.55 56.62 1351.54C49.486 1358.5 45.699 1367.7 45.958 1377.43C46.51 1398.37 56.134 1434.57 98.854 1488.24C101.108 1491.17 148.175 1554.52 156.425 1735.96C160.768 1831.38 201.74 1921.75 268.837 1983.88C324.079 2035.03 440.021 2110.4 595.785 2040.47C602.806 2037.33 610.944 2037.98 617.367 2042.2C623.793 2046.43 627.614 2053.65 627.499 2061.34C624.169 2283.28 764.872 2419.94 883.493 2495.5C990.807 2563.86 1125.08 2610.29 1261.58 2626.24C1394.09 2641.75 1514.25 2627.4 1599.92 2585.86C1616.92 2577.62 1627.34 2561.28 1627.8 2542.18C1628.27 2522.68 1618.41 2505.51 1601.42 2496.24C1541.82 2463.72 1457.45 2436.58 1350.66 2415.57C1350.47 2415.54 1350.28 2415.5 1350.09 2415.46C1129.46 2366.1 993.359 2235.07 945.569 2026.01C943.164 2015.5 948.562 2004.75 958.433 2000.41C968.301 1996.05 979.873 1999.33 986.009 2008.2C1095.3 2166.24 1269.48 2265.38 1518.49 2311.26ZM1441.21 1822.18C1496.01 1893.9 1569.35 1943.1 1664.06 1971.98C1679.67 1976.74 1695.2 1982.34 1710.63 1988.75C1623.32 1897.54 1534.28 1842.53 1441.21 1822.18Z" fill="#380175"/>
<path d="M582.505 2061.42C581.748 2015.68 583.452 1969.72 588.43 1923.78L590.237 1906.55L592.732 1889.35L595.381 1872.16C596.47 1866.46 597.688 1860.77 598.892 1855.08L602.779 1838.09C604.359 1832.48 606.007 1826.88 607.711 1821.31L612.855 1804.63L618.868 1788.2C635.023 1744.52 656.036 1702.61 682.347 1664.63C708.348 1626.45 738.822 1591.91 772.02 1560.88C775.052 1558.05 779.811 1558.21 782.645 1561.24C785.243 1564.02 785.323 1568.25 782.982 1571.12C754.801 1605.75 729.269 1642.12 708.19 1680.57C687.331 1719.13 670.385 1759.38 658.822 1801.21L654.467 1816.86L650.954 1832.76L647.333 1848.6L644.274 1864.59L640.937 1880.52L638.254 1896.62L635.434 1912.71L633.427 1928.98C628.149 1972.37 626.899 2016.44 627.497 2060.58L627.499 2060.75C627.667 2073.17 617.733 2083.38 605.307 2083.55C592.881 2083.72 582.673 2073.85 582.505 2061.42Z" fill="#380175"/>
<path d="M1486.41 2540.33C1442.12 2540.33 1404.59 2536.89 1395.16 2535.95C1278.51 2529.99 1172.86 2496.47 1081.15 2436.32C997.824 2381.65 929.308 2306.04 883.017 2217.65C794.675 2048.97 796.589 1852.71 888.007 1705.45C892.692 1697.9 901.784 1694.35 910.351 1696.73C918.908 1699.11 924.875 1706.84 924.997 1715.72C926.608 1831.31 946.987 1931.13 985.568 2012.43C990.304 2022.41 986.054 2034.33 976.073 2039.07C966.08 2043.8 954.166 2039.55 949.43 2029.57C917.223 1961.71 896.942 1882.23 888.876 1792.54C839.582 1917.41 849.335 2067.12 918.451 2199.09C1011.71 2377.16 1186.38 2485.38 1397.67 2496.02C1398 2496.04 1398.34 2496.07 1398.67 2496.1C1446.93 2500.96 1581.14 2507.17 1622.19 2477.99C1631.2 2471.6 1643.69 2473.71 1650.08 2482.71C1656.48 2491.71 1654.37 2504.2 1645.37 2510.6C1611.55 2534.63 1543.39 2540.33 1486.41 2540.33Z" fill="#380175"/>
<path d="M2484.83 2348.89C2198.44 2348.92 1978.83 2093.41 1831.39 1921.89C1778.6 1860.49 1733.01 1807.46 1698.24 1782.18C1552.01 1675.83 1398.1 1663.96 1340.42 1663.63C1352.9 1705.88 1374.84 1742.88 1408.33 1778.56C1415.89 1786.62 1415.49 1799.27 1407.44 1806.83C1399.38 1814.39 1386.73 1813.99 1379.17 1805.94C1334.99 1758.87 1307.59 1707.33 1295.41 1648.38C1294.26 1642.8 1295.54 1636.99 1298.94 1632.42C1302.33 1627.84 1307.52 1624.93 1313.2 1624.42C1321.77 1623.65 1525.44 1607.04 1721.76 1749.82C1760.31 1777.85 1807.3 1832.52 1861.72 1895.82C2010.35 2068.71 2234.98 2329.93 2519.73 2307.51C2530.73 2306.62 2540.37 2314.87 2541.24 2325.88C2542.1 2336.89 2533.88 2346.52 2522.87 2347.39C2510.08 2348.4 2497.37 2348.89 2484.83 2348.89Z" fill="#380175"/>
<path d="M1296.2 1651.17L1277.95 1564.4C1277.09 1560.3 1279.71 1556.28 1283.81 1555.42C1287.18 1554.72 1290.5 1556.37 1292.05 1559.27L1333.8 1637.5C1339.05 1647.34 1335.33 1659.58 1325.48 1664.83C1315.64 1670.09 1303.4 1666.37 1298.15 1656.52C1297.25 1654.82 1296.59 1652.96 1296.2 1651.17Z" fill="#380175"/>
<path d="M1528.29 1333.54C1559.96 1335.56 1591.54 1341.31 1622.2 1350.49C1652.87 1359.67 1682.44 1372.61 1710.5 1388.14C1766.84 1419.17 1815.96 1461.45 1860.05 1507.12C1882.09 1530.05 1903.12 1553.85 1922.61 1578.73C1942.1 1603.62 1960.32 1629.31 1978.35 1655C2014.41 1706.39 2048.92 1758.43 2084 1809.69C2090.24 1818.81 2087.91 1831.25 2078.79 1837.49C2069.68 1843.73 2057.24 1841.42 2051 1832.31C2015.6 1780.71 1981.41 1728.66 1945.52 1678.2C1927.58 1652.98 1909 1628.33 1890.16 1604.04C1871.32 1579.75 1852.48 1555.56 1832.35 1532.55C1792.25 1486.5 1747.35 1444.79 1696.3 1412.08C1645.29 1379.47 1587.49 1357.27 1526.71 1348.46C1522.61 1347.87 1519.76 1344.06 1520.36 1339.96C1520.92 1336.06 1524.38 1333.3 1528.23 1333.54L1528.29 1333.54Z" fill="#380175"/>
<path d="M2295.71 1720.66C2166.01 1720.66 2031.92 1688.22 1908.94 1624.37C1899.13 1619.28 1895.31 1607.21 1900.4 1597.41C1905.49 1587.6 1917.56 1583.78 1927.36 1588.87C2129.15 1693.62 2361.76 1709.8 2549.61 1632.13C2665.41 1584.26 2745.22 1507.46 2774.34 1415.89C2777.69 1405.36 2788.94 1399.53 2799.46 1402.89C2809.99 1406.23 2815.81 1417.49 2812.46 1428.01C2779.7 1531.02 2691.78 1616.64 2564.89 1669.1C2481.43 1703.61 2389.71 1720.66 2295.71 1720.66Z" fill="#380175"/>
<path d="M2024.11 1426.18C2055.72 1429.68 2087.06 1434.9 2118.19 1440.83C2149.34 1446.7 2180.21 1453.56 2210.92 1460.41C2241.61 1467.32 2272.09 1474.39 2302.41 1480.96C2332.75 1487.5 2362.93 1493.45 2393.16 1498.64L2393.28 1498.66C2404.18 1500.53 2411.5 1510.88 2409.62 1521.78C2407.87 1532 2398.57 1539.06 2388.44 1538.36C2356.07 1536.01 2324.22 1530.35 2293.03 1523.24C2261.82 1516.15 2231.22 1507.55 2200.94 1498.47C2170.67 1489.32 2140.65 1479.88 2110.71 1470.2C2080.76 1460.56 2050.82 1450.96 2020.89 1440.82C2016.94 1439.5 2014.81 1435.22 2016.13 1431.27C2017.28 1427.85 2020.67 1425.8 2024.11 1426.18Z" fill="#380175"/>
<path d="M2218.14 1496C2211.61 1496 2205.21 1492.81 2201.38 1486.93C2195.34 1477.68 2197.94 1465.29 2207.19 1459.25C2315.76 1388.4 2404.64 1208.83 2423.34 1022.56C2438.63 870.19 2404.98 744.804 2328.58 669.492C2320.72 661.738 2320.62 649.072 2328.38 641.206C2336.13 633.345 2348.79 633.247 2356.66 641.006C2441.85 724.981 2479.66 861.904 2463.14 1026.55C2443.32 1224.04 2347.06 1415.75 2229.06 1492.75C2225.68 1494.95 2221.89 1496 2218.14 1496Z" fill="#380175"/>
<path d="M1840.74 1253.36L1747.47 1112.34C1745.18 1108.88 1746.13 1104.2 1749.6 1101.91C1752.68 1099.87 1756.73 1100.4 1759.2 1102.99L1875.93 1225.31C1884.54 1234.33 1884.2 1248.62 1875.18 1257.24C1866.15 1265.85 1851.85 1265.52 1843.24 1256.49C1842.33 1255.54 1841.45 1254.42 1840.74 1253.36Z" fill="#380175"/>
<path d="M523.765 1974.9C419.39 1974.91 336.565 1936.71 276.824 1860.82C220.745 1789.58 198.489 1702.61 185.364 1634.8C164.688 1527.97 116.712 1470.7 67.947 1424.72C41.902 1400.16 29.036 1375.31 29.705 1350.85C30.445 1323.74 47.744 1308.37 49.715 1306.71L75.526 1337.26L75.873 1336.96C75.621 1337.2 69.699 1342.86 69.682 1352.58C69.66 1364.85 78.549 1379.73 95.39 1395.61C146.457 1443.76 201.747 1508.93 224.638 1627.2C241.542 1714.54 292.978 1980.35 601.432 1927.95C612.304 1926.08 622.648 1933.43 624.498 1944.31C626.348 1955.2 619.022 1965.53 608.131 1967.38C578.621 1972.4 550.479 1974.9 523.765 1974.9Z" fill="#380175"/>
<path d="M2139.05 2649.09C2130.75 2649.09 2122.99 2643.87 2120.14 2635.57C2023.66 2354.55 1852.53 2264.04 1671.34 2168.21C1554.18 2106.24 1433.02 2042.17 1325.25 1924.51C1324.96 1924.19 1324.67 1923.86 1324.4 1923.51C1193.31 1760.1 1301.07 1643.37 1302.18 1642.21C1309.8 1634.21 1322.46 1633.9 1330.45 1641.51C1338.44 1649.11 1338.77 1661.71 1331.22 1669.72C1327.55 1673.67 1247.37 1763.07 1355.19 1897.98C1458.18 2010.21 1576.05 2072.56 1690.04 2132.85C1878.42 2232.49 2056.35 2326.59 2157.97 2622.59C2161.56 2633.04 2156 2644.41 2145.55 2648C2143.4 2648.73 2141.21 2649.09 2139.05 2649.09Z" fill="#380175"/>
<path d="M770.476 1263.82C769.221 1263.82 768.008 1263.79 766.838 1263.73C699.826 1260.48 635.061 1171.5 612.837 1052.16C612.129 1048.35 612.542 1044.42 614.021 1040.85L614.622 1039.4C618.479 1030.09 628.643 1025.12 638.377 1027.76C660.574 1033.83 681.314 1048.36 698.44 1069.83C770.901 1135.88 817.332 1154.59 835.149 1150.46C842.046 1148.86 849.29 1151.04 854.17 1156.2C859.045 1161.34 860.833 1168.69 858.867 1175.5C837.004 1251.24 795.552 1263.82 770.476 1263.82ZM663.303 1090.19C688.55 1171.82 734.343 1222.11 768.774 1223.78C789.145 1224.64 802.663 1207.29 811.359 1188.87C774.701 1180.91 727.436 1150.59 670.248 1098.26C669.425 1097.5 668.666 1096.68 667.98 1095.8C666.46 1093.85 664.9 1091.98 663.303 1090.19Z" fill="#380175"/>
<path d="M869.849 1062C872.781 1071.74 875.672 1081.58 877.776 1091.78C879.99 1101.95 881.697 1112.41 882.102 1123.49C882.436 1134.55 881.943 1146.35 877.06 1159.12C874.374 1165.46 870.554 1172 864.748 1177.58C858.891 1183.08 851.577 1187.11 844.15 1189.44L842.214 1190.04C831.533 1193.4 820.158 1187.45 816.804 1176.78C813.452 1166.1 819.392 1154.72 830.073 1151.37C831.726 1150.85 833.496 1150.56 835.149 1150.46C837.383 1150.36 839.202 1150.06 841.104 1149.29C842.92 1148.41 844.861 1146.66 846.785 1144.21C850.491 1138.94 853.152 1130.7 854.644 1121.98C856.216 1113.19 856.722 1103.71 856.656 1094.13C856.719 1084.53 855.97 1074.79 855.152 1065L855.135 1064.79C854.791 1060.65 857.869 1057.01 862.012 1056.66C865.62 1056.36 868.845 1058.66 869.849 1062Z" fill="#380175"/>
<path d="M1175.25 1390L1079.8 1456.45C1076.1 1459 1072.2 1461.05 1068.1 1462.6C1051.7 1468.9 1032.85 1467 1018.25 1456.4C945.6 1403.55 923.55 1310.05 953.25 1235.6C968.3 1198 1007.3 1175.7 1046.9 1184.35C1081.8 1191.95 1114.7 1216.65 1141.95 1249.55C1162.35 1274.1 1179.6 1303.2 1192.2 1333.2C1200.8 1353.65 1193.5 1377.35 1175.25 1390Z" fill="#380175"/>
<path d="M567.725 1116.57C564.475 1107.06 561.993 1096.92 561.856 1085.94C561.707 1075.05 564.219 1063.03 571.172 1052.46C577.986 1041.86 589.207 1033.63 601.404 1029.73C613.643 1025.7 626.46 1025.63 638.347 1027.75L639.575 1027.97C650.564 1029.93 657.883 1040.43 655.923 1051.41C653.963 1062.4 643.465 1069.72 632.476 1067.76C630.884 1067.48 629.275 1066.97 627.852 1066.35C621.692 1063.63 615.206 1062.14 609.178 1062.58C603.15 1062.99 597.547 1065.1 592.877 1069.34C588.194 1073.54 584.671 1080.12 583.021 1087.84C581.327 1095.57 581.339 1104.19 582.276 1112.93L582.32 1113.33C582.764 1117.46 579.776 1121.17 575.645 1121.61C572.083 1122 568.835 1119.82 567.725 1116.57Z" fill="#380175"/>
<path d="M1431.92 666.796C1448.04 658.715 1465.2 651.957 1483.42 648.031C1501.56 644.042 1520.98 643.251 1539.53 647.216C1558.1 651.044 1575.26 659.491 1589.55 670.492C1603.93 681.498 1615.7 694.794 1625.84 708.798C1628.27 712.157 1627.52 716.85 1624.17 719.281C1621.06 721.532 1616.82 721.058 1614.27 718.329L1614.16 718.202C1603.12 706.386 1590.98 695.853 1577.66 688.104C1564.37 680.326 1549.98 675.545 1535.46 674.413C1520.93 673.187 1506.32 675.6 1492.31 680.59C1478.27 685.527 1464.8 692.817 1451.98 701.401C1442.79 707.558 1430.34 705.097 1424.18 695.898C1418.02 686.704 1420.48 674.252 1429.68 668.095C1430.35 667.646 1431.04 667.241 1431.75 666.884L1431.92 666.796Z" fill="#380175"/>
<path d="M1022.47 972.006C1025.02 987.992 1028.7 1003.77 1034.91 1017.86C1040.98 1031.88 1049.9 1044.28 1060.75 1050.43C1066.14 1053.5 1071.85 1054.89 1077.63 1055.02C1083.47 1054.97 1089.46 1053.59 1095.37 1051.08C1107.22 1045.94 1118.28 1036.53 1127.71 1025.55C1134.93 1017.15 1147.59 1016.2 1155.99 1023.42C1164.38 1030.63 1165.34 1043.29 1158.12 1051.69C1157.57 1052.33 1156.99 1052.92 1156.37 1053.48L1156.18 1053.65C1142.21 1066.16 1125.93 1077.33 1106.17 1083.06C1096.3 1085.82 1085.51 1086.98 1074.73 1085.51C1063.98 1083.9 1053.53 1079.53 1045.22 1073.13C1036.88 1066.72 1030.52 1058.79 1025.7 1050.56C1020.87 1042.29 1017.49 1033.68 1014.92 1025.05C1009.81 1007.77 1008.11 990.399 1007.53 973.294C1007.39 969.148 1010.63 965.677 1014.78 965.535C1018.61 965.403 1021.86 968.167 1022.45 971.858L1022.47 972.006Z" fill="#380175"/>
<path d="M1175.25 1390L1079.8 1456.45C1076.1 1459 1072.2 1461.05 1068.1 1462.6C999.7 1377.25 1056.25 1263.5 1141.95 1249.55C1162.35 1274.1 1179.6 1303.2 1192.2 1333.2C1200.8 1353.65 1193.5 1377.35 1175.25 1390Z" fill="#E43841"/>
<path d="M1202.14 1069.71C1179.11 1069.71 1156.53 1066.03 1135.23 1058.44C1128.8 1056.14 1123.98 1050.72 1122.46 1044.06C1120.93 1037.4 1122.91 1030.42 1127.71 1025.56C1137.33 1015.8 1146.21 1003.96 1154.11 990.356C1160.7 979.038 1167.19 967.993 1174.27 957.075C1273.21 804.765 1357.49 709.819 1431.94 666.787C1437.16 663.765 1443.45 663.266 1449.07 665.415C1454.7 667.559 1459.06 672.124 1460.94 677.842C1498.26 791.065 1470.42 907.583 1386.48 989.531C1333.38 1041.36 1266.02 1069.71 1202.14 1069.71ZM1177.51 1027.95C1237.59 1036.97 1305.81 1012.38 1358.54 960.907C1425.1 895.931 1450.92 805.761 1430.02 715.56C1366.25 760.785 1293.27 847.308 1207.82 978.841C1201.24 989.007 1195.01 999.603 1188.69 1010.46C1185.14 1016.57 1181.41 1022.41 1177.51 1027.95Z" fill="#380175"/>
<path d="M1048.76 1486.23C1033.84 1486.23 1019.01 1481.68 1006.49 1472.58C930.43 1417.27 900.237 1314.5 934.7 1228.2C953.606 1180.86 1002.58 1154.19 1051.17 1164.79C1125.73 1181.05 1182.42 1258.44 1210.62 1325.44C1222.75 1354.28 1212.69 1388.34 1186.69 1406.43L1091.2 1472.86C1078.39 1481.78 1063.52 1486.23 1048.76 1486.23ZM1029.9 1202.49C1005 1202.49 981.787 1218.14 971.848 1243.03C944.07 1312.59 968.533 1395.52 1030.02 1440.22C1041.15 1448.32 1056.56 1448.24 1068.36 1440.03L1163.85 1373.6C1174.44 1366.23 1178.61 1352.5 1173.75 1340.96C1143.21 1268.39 1091.75 1214.58 1042.65 1203.87C1038.39 1202.94 1034.12 1202.49 1029.9 1202.49Z" fill="#380175"/>
<path d="M147.637 1841.37C141.795 1841.37 136.084 1838.45 132.769 1833.13C127.657 1824.93 130.162 1814.13 138.365 1809.02C150.023 1801.75 165.562 1789.17 173.382 1770.52C179.901 1754.96 179.254 1737.55 171.693 1725.09C164.293 1712.9 148.829 1705.71 136.517 1708.77C127.123 1711.07 117.65 1705.35 115.335 1695.97C113.018 1686.59 118.751 1677.1 128.133 1674.78C155.352 1668.09 186.243 1681.6 201.615 1706.94C214.879 1728.8 216.432 1758.34 205.663 1784.04C196.654 1805.53 179.784 1824.45 156.876 1838.72C153.997 1840.52 150.796 1841.37 147.637 1841.37Z" fill="#380175"/>
<path d="M281.711 2028.18C279.716 2028.18 277.688 2027.84 275.705 2027.11C266.628 2023.79 261.96 2013.75 265.278 2004.66C273.496 1982.18 275.2 1958.75 270.073 1938.68C264.599 1917.25 250.874 1898.88 233.362 1889.55C215.359 1879.96 192.715 1880.31 177.007 1890.44C168.887 1895.67 158.054 1893.33 152.818 1885.2C147.584 1877.08 149.927 1866.25 158.052 1861.01C184.497 1843.98 220.518 1843.05 249.82 1858.66C276.256 1872.75 295.999 1898.75 303.985 1930.02C310.941 1957.25 308.924 1987.21 298.15 2016.69C295.557 2023.77 288.85 2028.18 281.711 2028.18Z" fill="#380175"/>
<path d="M488.13 2101.18C480.51 2101.18 473.501 2096.16 471.309 2088.47C463.623 2061.49 440.14 2038.91 412.876 2032.29C385.61 2025.67 354.39 2034.96 335.186 2055.41C328.567 2062.46 317.496 2062.8 310.45 2056.19C303.404 2049.57 303.057 2038.5 309.674 2031.45C337.653 2001.66 381.398 1988.64 421.136 1998.27C460.865 2007.92 493.77 2039.56 504.971 2078.88C507.617 2088.18 502.229 2097.86 492.935 2100.51C491.333 2100.96 489.717 2101.18 488.13 2101.18Z" fill="#380175"/>
<path d="M972.727 2100.25C970.996 2100.25 969.238 2099.99 967.498 2099.45C934.627 2089.17 905.621 2066.32 887.918 2036.78C870.218 2007.23 863.76 1970.87 870.206 1937.03C876.158 1905.78 892.843 1880.88 915.987 1868.73C924.547 1864.24 935.123 1867.53 939.615 1876.09C944.11 1884.64 940.814 1895.22 932.257 1899.72C918.817 1906.77 908.473 1923.17 904.586 1943.58C899.728 1969.1 904.596 1996.51 917.943 2018.79C931.29 2041.07 953.16 2058.29 977.948 2066.04C987.172 2068.93 992.311 2078.75 989.425 2087.97C987.083 2095.46 980.176 2100.25 972.727 2100.25Z" fill="#380175"/>
<path d="M1077.13 2278.68C1076.8 2278.68 1076.47 2278.67 1076.14 2278.65C1052.97 2277.36 1026.71 2275.9 1002.19 2266.66C972.851 2255.61 950.717 2233.93 942.985 2208.65C936.991 2189.06 939.565 2166.8 949.87 2149.09C960.175 2131.38 978.264 2118.14 998.256 2113.68C1007.67 2111.57 1017.04 2117.51 1019.15 2126.94C1021.25 2136.38 1015.32 2145.73 1005.88 2147.84C995.238 2150.22 985.607 2157.26 980.119 2166.69C974.633 2176.12 973.261 2187.98 976.452 2198.41C981.035 2213.38 995.268 2226.66 1014.53 2233.91C1034.02 2241.26 1056.42 2242.5 1078.08 2243.71C1087.73 2244.24 1095.12 2252.5 1094.58 2262.15C1094.07 2271.47 1086.35 2278.68 1077.13 2278.68Z" fill="#380175"/>
<path d="M1176.13 2393.12C1156.43 2393.12 1138.61 2387.38 1125.41 2376.68C1111.05 2365.06 1101.46 2347.13 1098.4 2326.22C1095.62 2307.27 1098.47 2288.87 1101.27 2274.97C1103.17 2265.49 1112.41 2259.35 1121.87 2261.26C1131.35 2263.16 1137.48 2272.39 1135.58 2281.86C1133.34 2293 1131.03 2307.52 1133.02 2321.14C1134.79 2333.16 1140.04 2343.49 1147.44 2349.49C1155.22 2355.79 1166.92 2358.78 1180.33 2357.99C1194.13 2357.15 1208.55 2352.55 1222.49 2348.11C1231.7 2345.2 1241.54 2350.27 1244.47 2359.48C1247.41 2368.68 1242.32 2378.53 1233.11 2381.46C1217.88 2386.32 1200.61 2391.81 1182.47 2392.92C1180.34 2393.06 1178.22 2393.12 1176.13 2393.12Z" fill="#380175"/>
<path d="M1343.24 2480.49C1320.03 2480.49 1297.02 2470.62 1281.39 2453.19C1261.83 2431.38 1255.3 2399.36 1264.75 2371.63C1267.87 2362.47 1277.81 2357.59 1286.96 2360.71C1296.11 2363.83 1301 2373.77 1297.88 2382.92C1292.52 2398.62 1296.37 2417.47 1307.45 2429.82C1318.53 2442.18 1336.85 2448.04 1353.04 2444.42C1369.23 2440.8 1383.31 2427.69 1388.08 2411.8C1390.85 2402.54 1400.61 2397.28 1409.86 2400.06C1419.12 2402.84 1424.38 2412.59 1421.6 2421.85C1413.19 2449.93 1389.27 2472.19 1360.67 2478.58C1354.93 2479.87 1349.07 2480.49 1343.24 2480.49Z" fill="#380175"/>
<path d="M1472.9 1954.32C1440.27 1954.32 1407.7 1938.89 1388.3 1912.24C1362.67 1877.05 1362.69 1826 1388.37 1790.84C1394.07 1783.04 1405.01 1781.32 1412.82 1787.03C1420.62 1792.73 1422.33 1803.68 1416.63 1811.48C1399.96 1834.31 1399.94 1868.77 1416.59 1891.63C1433.24 1914.5 1466.04 1925.04 1492.89 1916.19C1502.08 1913.16 1511.97 1918.14 1515 1927.32C1518.02 1936.49 1513.04 1946.39 1503.86 1949.42C1493.83 1952.73 1483.36 1954.32 1472.9 1954.32Z" fill="#380175"/>
<path d="M1628.19 2069.75C1597.52 2069.75 1567.94 2056.68 1548.16 2034.13C1526.22 2009.12 1518.13 1974.17 1527.03 1942.94C1529.68 1933.64 1539.36 1928.27 1548.66 1930.91C1557.96 1933.56 1563.34 1943.24 1560.69 1952.54C1555.09 1972.16 1560.51 1995.13 1574.48 2011.06C1588.24 2026.75 1610.26 2035.76 1632.01 2034.65C1653.35 2033.54 1674.79 2022.75 1689.38 2005.79C1695.68 1998.45 1706.73 1997.63 1714.06 2003.92C1721.38 2010.23 1722.22 2021.28 1715.92 2028.6C1694.92 2053.03 1665 2067.97 1633.84 2069.61C1631.95 2069.7 1630.07 2069.75 1628.19 2069.75Z" fill="#380175"/>
<path d="M1798.56 2173.55C1791.93 2173.55 1785.3 2172.87 1778.8 2171.46C1745.83 2164.34 1717.71 2139.04 1707.15 2107.01C1696.59 2074.99 1704.15 2037.93 1726.41 2012.6C1732.79 2005.33 1743.85 2004.63 1751.11 2011C1758.37 2017.38 1759.08 2028.43 1752.7 2035.69C1738.69 2051.64 1733.75 2075.9 1740.39 2096.05C1747.04 2116.21 1765.44 2132.77 1786.19 2137.25C1806.93 2141.72 1830.53 2134.25 1844.91 2118.64C1851.46 2111.53 1862.53 2111.07 1869.64 2117.63C1876.75 2124.17 1877.2 2135.24 1870.66 2142.35C1852.32 2162.26 1825.48 2173.55 1798.56 2173.55Z" fill="#380175"/>
<path d="M1580.32 1858.18C1578.98 1858.18 1577.61 1858.02 1576.24 1857.7C1566.84 1855.45 1561.04 1846.01 1563.28 1836.61C1569.2 1811.82 1555.18 1782.98 1532.03 1772.31C1508.89 1761.66 1477.86 1769.75 1462.87 1790.36C1457.18 1798.18 1446.23 1799.9 1438.42 1794.21C1430.6 1788.53 1428.88 1777.58 1434.56 1769.77C1459.28 1735.8 1508.52 1722.94 1546.68 1740.53C1584.84 1758.1 1607.08 1803.88 1597.33 1844.74C1595.41 1852.77 1588.23 1858.18 1580.32 1858.18Z" fill="#380175"/>
<path d="M1728.52 1982.84C1726.09 1982.84 1723.61 1982.32 1721.25 1981.24C1712.46 1977.22 1708.6 1966.84 1712.62 1958.05C1723.11 1935.13 1717.23 1904.76 1698.95 1887.4C1680.68 1870.04 1650.04 1865.75 1627.7 1877.42C1619.13 1881.9 1608.56 1878.57 1604.09 1870C1599.62 1861.44 1602.94 1850.86 1611.5 1846.39C1647.06 1827.84 1693.97 1834.4 1723.05 1862.02C1752.14 1889.64 1761.13 1936.15 1744.45 1972.61C1741.51 1979.04 1735.16 1982.84 1728.52 1982.84Z" fill="#380175"/>
<path d="M1892.63 2147.01C1882.99 2147.01 1875.16 2139.21 1875.13 2129.56C1875.03 2092.49 1864.65 2060.37 1845.92 2039.11C1825.01 2015.37 1791.76 2005.77 1766.84 2016.26C1757.95 2020.02 1747.67 2015.85 1743.92 2006.94C1740.16 1998.04 1744.34 1987.77 1753.24 1984.02C1792.21 1967.57 1841.13 1980.72 1872.18 2015.97C1903.38 2051.38 1910.04 2097.23 1910.13 2129.46C1910.16 2139.12 1902.34 2146.98 1892.68 2147.01C1892.67 2147.01 1892.65 2147.01 1892.63 2147.01Z" fill="#380175"/>
<path d="M2025.44 2267.38C2023.33 2267.38 2021.2 2267 2019.12 2266.2C2010.1 2262.7 2005.63 2252.57 2009.12 2243.55C2016.81 2223.71 2010.48 2198.24 1994.41 2184.3C1978.33 2170.36 1952.22 2167.7 1933.67 2178.11C1925.22 2182.84 1914.57 2179.83 1909.84 2171.42C1905.11 2162.99 1908.11 2152.32 1916.54 2147.59C1948.34 2129.75 1989.79 2133.97 2017.34 2157.86C2044.89 2181.76 2054.93 2222.19 2041.76 2256.2C2039.07 2263.13 2032.45 2267.38 2025.44 2267.38Z" fill="#380175"/>
<path d="M2155.35 2317.25C2145.68 2317.25 2137.85 2309.41 2137.85 2299.75C2137.85 2287.24 2128.43 2274.77 2116.4 2271.34C2104.38 2267.9 2089.8 2273.56 2083.21 2284.19C2078.11 2292.4 2067.33 2294.93 2059.11 2289.84C2050.9 2284.74 2048.37 2273.95 2053.46 2265.74C2068.34 2241.76 2098.83 2229.94 2125.99 2237.68C2153.14 2245.41 2172.85 2271.52 2172.85 2299.75C2172.85 2309.41 2165.01 2317.25 2155.35 2317.25Z" fill="#380175"/>
<path d="M2238.52 1853.57C2229.25 1853.57 2221.52 1846.3 2221.05 1836.94C2219.98 1815.15 2200.73 1794.85 2179.03 1792.62C2157.36 1790.41 2134.35 1806.32 2128.84 1827.44C2126.4 1836.79 2116.84 1842.39 2107.5 1839.96C2098.14 1837.52 2092.54 1827.96 2094.98 1818.61C2104.92 1780.47 2143.46 1753.77 2182.62 1757.8C2221.82 1761.84 2254.06 1795.84 2256.01 1835.21C2256.49 1844.86 2249.05 1853.07 2239.4 1853.55C2239.1 1853.57 2238.81 1853.57 2238.52 1853.57Z" fill="#380175"/>
<path d="M2289.43 1865.82C2281.53 1865.82 2274.37 1860.44 2272.43 1852.42C2263.89 1817.05 2287.06 1784 2314.37 1769.62C2337.87 1757.25 2366.79 1755.35 2391.71 1764.56C2416.63 1773.76 2437.38 1794 2447.19 1818.69C2450.77 1827.67 2446.38 1837.85 2437.4 1841.42C2428.42 1844.98 2418.24 1840.6 2414.68 1831.63C2408.46 1816.01 2395.35 1803.21 2379.59 1797.39C2363.82 1791.57 2345.53 1792.76 2330.67 1800.59C2315.52 1808.57 2302.31 1827.07 2306.45 1844.21C2308.72 1853.6 2302.94 1863.06 2293.55 1865.33C2292.17 1865.66 2290.79 1865.82 2289.43 1865.82Z" fill="#380175"/>
<path d="M2477.15 1833.57C2468.86 1833.57 2461.5 1827.65 2459.95 1819.21C2452.78 1780.07 2474.39 1737.49 2510.22 1720.16C2546.05 1702.84 2592.84 1712.35 2619.07 1742.26C2625.44 1749.53 2624.72 1760.58 2617.45 1766.96C2610.18 1773.32 2599.12 1772.6 2592.75 1765.34C2576.8 1747.14 2547.24 1741.14 2525.46 1751.67C2503.67 1762.21 2490.02 1789.11 2494.38 1812.91C2496.12 1822.42 2489.82 1831.54 2480.32 1833.27C2479.25 1833.47 2478.19 1833.57 2477.15 1833.57Z" fill="#380175"/>
<path d="M2639.62 1755.87C2629.99 1755.87 2622.16 1748.08 2622.12 1738.44C2622.06 1722.51 2621.99 1706.04 2625.76 1689.24C2629 1674.84 2636.54 1654.73 2654.11 1640.68C2678.73 1620.96 2712.12 1622.08 2734.23 1622.8C2743.89 1623.11 2751.46 1631.2 2751.14 1640.86C2750.83 1650.52 2742.7 1658.01 2733.08 1657.78C2710.64 1657.06 2689.39 1657.26 2675.98 1668C2668.45 1674.03 2662.75 1684.29 2659.91 1696.91C2657.01 1709.85 2657.07 1724.31 2657.12 1738.3C2657.16 1747.96 2649.36 1755.83 2639.69 1755.87C2639.67 1755.87 2639.64 1755.87 2639.62 1755.87Z" fill="#380175"/>
<path d="M2298.1 1508.24C2295.88 1508.24 2293.63 1507.82 2291.45 1506.92C2282.51 1503.24 2278.25 1493.01 2281.93 1484.08C2294.13 1454.42 2320.95 1430.8 2351.91 1422.45C2382.88 1414.09 2417.94 1421.02 2443.4 1440.51C2451.08 1446.39 2452.53 1457.37 2446.66 1465.05C2440.79 1472.72 2429.8 1474.18 2422.13 1468.3C2405.12 1455.28 2381.71 1450.66 2361.03 1456.24C2340.35 1461.82 2322.44 1477.59 2314.29 1497.4C2311.51 1504.15 2304.98 1508.24 2298.1 1508.24Z" fill="#380175"/>
<path d="M2456.97 1404C2451.4 1404 2445.93 1401.36 2442.54 1396.43C2421.91 1366.48 2415.91 1330.37 2426.48 1299.82C2438.96 1263.76 2475.03 1239.76 2510.35 1243.93C2519.95 1245.07 2526.8 1253.78 2525.66 1263.37C2524.52 1272.97 2515.78 1279.84 2506.22 1278.68C2487.48 1276.45 2466.55 1291.08 2459.56 1311.27C2452.72 1331.05 2457.24 1356.07 2471.37 1376.58C2476.85 1384.54 2474.84 1395.44 2466.88 1400.92C2463.85 1403 2460.39 1404 2456.97 1404Z" fill="#380175"/>
<path d="M2530.45 1214.88C2528.24 1214.88 2525.99 1214.46 2523.82 1213.57C2487.32 1198.61 2463.71 1159.26 2467.68 1120.02C2471.65 1080.77 2502.66 1046.95 2541.42 1039.6C2550.9 1037.78 2560.07 1044.03 2561.87 1053.53C2563.67 1063.03 2557.43 1072.18 2547.93 1073.98C2524.44 1078.44 2504.91 1099.75 2502.5 1123.54C2500.09 1147.33 2514.97 1172.11 2537.1 1181.19C2546.04 1184.85 2550.32 1195.07 2546.65 1204.01C2543.88 1210.78 2537.34 1214.88 2530.45 1214.88Z" fill="#380175"/>
<g opacity="0.3">
<path d="M885.25 103.4C885.25 103.4 885.35 103.35 885.5 103.3L885.45 103.35C885.4 103.35 885.3 103.4 885.25 103.4Z" fill="#380175"/>
</g>
<g opacity="0.3">
<path d="M1998.88 1322L1992.9 1302.65L1890 1266L1846.64 1224.67L1842.12 1224.14C2134.44 790.463 1882.45 303.248 1515 126C1370.6 56.3491 1203.05 32.0991 1045.2 59.4011C1015.09 68.8101 985.41 78.4901 958.368 87.5231C1281.43 49.7421 1911.75 333.285 1631.8 1034.67C1611.27 1086.1 1614.71 1144.05 1641 1192.79C1713.76 1327.66 1812.82 1415.16 2014.45 1317.99C2009.28 1319.52 2004.08 1320.85 1998.88 1322Z" fill="#380175"/>
</g>
<g opacity="0.3">
<path d="M2391.85 1517C2391.55 1517.4 2391.25 1517.85 2390.95 1518.25L2035.55 1436.4C2304.05 1427.65 2535.55 1357.7 2521.85 882.1C2586.05 1054.15 2559.05 1280.2 2391.85 1517Z" fill="#380175"/>
</g>
<g opacity="0.3">
<path d="M2816.45 1475C2755.75 1767.8 2432.75 1927.5 2067.5 1821C2069.75 1826.2 2072.2 1831.45 2074.85 1836.65L2011.45 1738.35C2287.8 1822.5 2487.05 1784.15 2546.85 1524.65C2546.85 1524.65 2546.85 1524.65 2546.9 1524.6C2624.9 1511.65 2685.75 1477.45 2707.5 1451C2715.1 1441.75 2725.05 1432.85 2735.95 1424.5C2754.35 1410.45 2776.75 1411.6 2793.4 1421.95C2793.4 1421.95 2793.65 1422.1 2794.15 1422.4C2810.55 1432.95 2821.15 1452.45 2816.45 1475Z" fill="#380175"/>
</g>
<g opacity="0.3">
<path d="M1291.97 1581C1522.01 1481.51 1670.16 1586.83 1709.1 1965.33C1611.98 1873.62 1510.48 1813.81 1402.5 1801.16C1350.43 1740.52 1309.62 1670.45 1291.97 1581Z" fill="#380175"/>
</g>
<g opacity="0.3">
<path d="M2605.2 2287.45C2579.8 2303.95 2551.55 2317.25 2521.3 2327.45L2521.25 2327.5C2361.6 2381.45 2147 2349.7 2007.4 2248.55L2007.3 2248.45L1892.25 2118.1C2148.7 2309.7 2390.8 2202.05 2139.05 1929.35C2139.05 1929.35 2140.25 1929.55 2142.55 1929.9C2178.05 1968.4 2220.6 2004.9 2263.5 2037.55C2334.15 2091.25 2418 2123.95 2505.95 2135.6C2535.75 2139.55 2563.55 2146.8 2588.05 2155.1C2646.75 2175 2657.2 2253.7 2605.2 2287.45Z" fill="#380175"/>
</g>
<g opacity="0.3">
<path d="M1291.97 1581C1291.97 1581 1013.33 1716.44 1256.67 1986.22C1256.67 1986.22 1464.65 2153.03 1757.33 2036.18C1757.33 2036.18 1494.04 1953.33 1402.5 1801.16C1310.96 1648.98 1291.97 1581 1291.97 1581Z" fill="#380175"/>
</g>
<g opacity="0.3">
<path d="M1987.35 2233.1C1987.15 2231.85 1986.9 2230.6 1986.65 2229.35C1986.65 2229.35 1988.1 2231.65 1990.75 2235.85C1989.6 2234.95 1988.45 2234 1987.35 2233.1Z" fill="#380175"/>
</g>
<g opacity="0.3">
<path d="M2126.45 2737.2C2107.75 2794.25 2029.8 2801.5 2001.65 2748.45C1931.45 2616.2 1851.25 2509.85 1758 2437.4C1946.35 2512.3 2023.75 2449.45 1990.2 2248.85C2078.95 2371 2133.8 2513 2139.1 2629.05C2140.9 2668.75 2136.9 2705.4 2126.45 2737.2Z" fill="#380175"/>
</g>
<g opacity="0.3">
<path d="M967.5 2021C1020.68 2262.13 1191.61 2368.89 1421.7 2408.12C769.566 2449.65 726.667 2119.33 736.075 1909.32C745.483 1699.31 905 1716 905 1716C905 1716 915.245 1955.19 967.5 2021Z" fill="#380175"/>
</g>
<g opacity="0.3">
<path d="M669.5 1739.4C605.15 1873.6 605 2059.1 605 2061C468.4 2122.35 343.35 2083.55 253.55 2000.4C219.25 1968.65 191.9 1930.85 172.1 1889.45C445.4 2042.45 612.8 1831.35 669.5 1739.4Z" fill="#380175"/>
</g>
<g opacity="0.3">
<path d="M691.05 1700.5C690.25 1702.25 683 1717.4 669.5 1739.4C676 1725.8 683.15 1712.8 691.05 1700.5Z" fill="#380175"/>
</g>
<g opacity="0.3">
<path d="M1609.75 2606.1C1437.85 2689.45 1138.4 2664.95 911 2538.1C1360.65 2647.85 1495.1 2581.95 1450 2416L1454.45 2416.55C1526.25 2436.1 1576.75 2457.15 1612.2 2476.5C1620.9 2481.25 1628.1 2487.35 1633.8 2494.3C1662.15 2528.75 1653.95 2584.65 1609.75 2606.1Z" fill="#380175"/>
</g>
<g opacity="0.25">
<path d="M874.628 486.87C848.337 583.779 825.483 661.922 769.487 646.73C713.491 631.538 689.411 540.663 715.702 443.754C741.993 346.845 808.7 280.6 864.696 295.791C920.692 310.983 900.919 389.961 874.628 486.87Z" fill="white"/>
</g>
<g opacity="0.25">
<path d="M1026.68 215.167C1026.68 239.56 996.972 251 960.322 251C923.672 251 893.961 239.559 893.961 215.167C893.961 190.774 923.672 171 960.322 171C996.972 171 1026.68 190.774 1026.68 215.167Z" fill="white"/>
</g>
</svg>
